<svg width="1400" height="900" viewBox="0 0 1400 900" fill="none" xmlns="http://www.w3.org/2000/svg" role="img" aria-label="Oracle logo">
  <defs>
    <linearGradient id="ring" x1="260" y1="190" x2="1110" y2="710" gradientUnits="userSpaceOnUse">
      <stop stop-color="#7CEBFF"/>
      <stop offset="0.52" stop-color="#B16CFF"/>
      <stop offset="1" stop-color="#FFE08A"/>
    </linearGradient>
    <linearGradient id="steel" x1="320" y1="180" x2="1070" y2="730" gradientUnits="userSpaceOnUse">
      <stop stop-color="#DDE7EE"/>
      <stop offset="0.42" stop-color="#97A9B5"/>
      <stop offset="1" stop-color="#5C6D79"/>
    </linearGradient>
    <filter id="shadow" x="0" y="0" width="1400" height="900" filterUnits="userSpaceOnUse">
      <feDropShadow dx="0" dy="16" stdDeviation="14" flood-color="#000000" flood-opacity="0.45"/>
      <feDropShadow dx="0" dy="0" stdDeviation="10" flood-color="#69EFFF" flood-opacity="0.18"/>
    </filter>
  </defs>

  <g filter="url(#shadow)">
    <circle cx="700" cy="392" r="274" stroke="#304750" stroke-width="8" opacity="0.75"/>
    <circle cx="700" cy="392" r="248" stroke="url(#ring)" stroke-width="4" opacity="0.55"/>
    <g opacity="0.9">
      <path d="M700 92V156" stroke="#6FEAFF" stroke-width="6" stroke-linecap="round"/>
      <path d="M700 628V692" stroke="#6FEAFF" stroke-width="6" stroke-linecap="round"/>
      <path d="M400 392H336" stroke="#6FEAFF" stroke-width="6" stroke-linecap="round"/>
      <path d="M1064 392H1000" stroke="#6FEAFF" stroke-width="6" stroke-linecap="round"/>
    </g>

    <g opacity="0.65">
      <circle cx="516" cy="196" r="12" fill="#6FEAFF"/>
      <circle cx="884" cy="196" r="12" fill="#6FEAFF"/>
      <circle cx="516" cy="588" r="12" fill="#6FEAFF"/>
      <circle cx="884" cy="588" r="12" fill="#6FEAFF"/>
      <circle cx="700" cy="114" r="16" fill="#6FEAFF"/>
      <circle cx="700" cy="670" r="16" fill="#6FEAFF"/>
      <circle cx="390" cy="392" r="14" fill="#6FEAFF"/>
      <circle cx="1010" cy="392" r="14" fill="#6FEAFF"/>
    </g>

    <path d="M516 192L584 240" stroke="#35535C" stroke-width="4" opacity="0.8"/>
    <path d="M884 192L816 240" stroke="#35535C" stroke-width="4" opacity="0.8"/>
    <path d="M516 592L584 544" stroke="#35535C" stroke-width="4" opacity="0.8"/>
    <path d="M884 592L816 544" stroke="#35535C" stroke-width="4" opacity="0.8"/>
    <path d="M390 392L470 392" stroke="#35535C" stroke-width="4" opacity="0.8"/>
    <path d="M930 240L1010 392" stroke="#35535C" stroke-width="4" opacity="0.6"/>
    <path d="M470 392L558 340" stroke="#35535C" stroke-width="4" opacity="0.8"/>
    <path d="M930 392L842 340" stroke="#35535C" stroke-width="4" opacity="0.8"/>
    <path d="M470 392L558 444" stroke="#35535C" stroke-width="4" opacity="0.8"/>
    <path d="M930 392L842 444" stroke="#35535C" stroke-width="4" opacity="0.8"/>

    <g>
      <path d="M700 206C782 206 854 278 854 392C854 506 782 578 700 578C618 578 546 506 546 392C546 278 618 206 700 206Z" stroke="#31444D" stroke-width="14" fill="#111820"/>
      <path d="M700 244C762 244 816 298 816 392C816 486 762 540 700 540C638 540 584 486 584 392C584 298 638 244 700 244Z" stroke="url(#ring)" stroke-width="6" fill="#0A1015"/>
      <path d="M700 284C742 284 776 318 776 392C776 466 742 500 700 500C658 500 624 466 624 392C624 318 658 284 700 284Z" stroke="#4B5E6A" stroke-width="10" fill="#0B1116"/>
      <circle cx="700" cy="392" r="66" fill="#081015" stroke="#33434B" stroke-width="8"/>
      <circle cx="700" cy="392" r="22" fill="#6FEAFF"/>
      <circle cx="700" cy="392" r="50" stroke="#6FEAFF" stroke-width="4" opacity="0.6"/>
      <circle cx="700" cy="392" r="84" stroke="#B16CFF" stroke-width="4" opacity="0.45"/>
      <path d="M650 392C650 364 672 342 700 342C728 342 750 364 750 392C750 420 728 442 700 442C672 442 650 420 650 392Z" stroke="#F8F1FF" stroke-width="4" opacity="0.9"/>
      <circle cx="700" cy="392" r="8" fill="#FFFFFF"/>
      <path d="M622 326L658 346" stroke="#6FEAFF" stroke-width="5" stroke-linecap="round"/>
      <path d="M622 458L658 438" stroke="#FF7FD9" stroke-width="5" stroke-linecap="round"/>
      <path d="M778 326L742 346" stroke="#FF7FD9" stroke-width="5" stroke-linecap="round"/>
      <path d="M778 458L742 438" stroke="#FFE08A" stroke-width="5" stroke-linecap="round"/>
    </g>

    <g>
      <path d="M534 186L612 248" stroke="url(#ring)" stroke-width="8" opacity="0.7"/>
      <path d="M866 186L788 248" stroke="url(#ring)" stroke-width="8" opacity="0.7"/>
      <path d="M534 598L612 536" stroke="url(#ring)" stroke-width="8" opacity="0.7"/>
      <path d="M866 598L788 536" stroke="url(#ring)" stroke-width="8" opacity="0.7"/>
    </g>

    <g>
      <rect x="512" y="152" width="376" height="34" rx="17" fill="url(#steel)" opacity="0.9"/>
      <rect x="548" y="148" width="304" height="44" rx="22" fill="#162027" stroke="#7AE7FF" stroke-width="4" opacity="0.95"/>
      <rect x="588" y="122" width="224" height="58" rx="29" fill="#10181F" stroke="#9FB1BC" stroke-width="6"/>
      <rect x="642" y="132" width="116" height="38" rx="19" fill="#081015" stroke="#6FEAFF" stroke-width="5"/>
    </g>

    <g>
      <path d="M518 622C570 650 626 666 700 666C774 666 830 650 882 622" stroke="#31444D" stroke-width="18" stroke-linecap="round"/>
      <path d="M528 642C580 668 634 682 700 682C766 682 820 668 872 642" stroke="url(#ring)" stroke-width="4" stroke-linecap="round" opacity="0.8"/>
      <text x="700" y="790" text-anchor="middle" font-family="Arial, Helvetica, sans-serif" font-size="120" font-weight="700" letter-spacing="12" fill="url(#steel)" stroke="#274049" stroke-width="4">ORACLE</text>
    </g>
  </g>
</svg>
